<svg width="128" height="50" viewBox="0 0 128 50" fill="none" xmlns="http://www.w3.org/2000/svg">
<g clip-path="url(#clip0_601_480)">
<path d="M11.7868 3.22709C11.7206 15.0012 11.6539 26.7742 11.5867 38.5461L0 44.9663L3.07776 46.8698L13.1132 41.2237L23.1337 46.7954L26.2032 44.963L14.6429 38.6238L14.6082 3.11133" fill="#E01E1E"/>
<path d="M3.11084 37.7157L13.1297 32.2333L23.4082 37.8067L26.4578 35.8502L13.0784 28.4543L0 35.8618L3.11084 37.7157Z" fill="#E01E1E"/>
<path d="M3.3343 9.2697L13.2572 3.78563L23.4365 9.35405L26.4564 7.39923L13.206 0.00830078L0.254883 7.4075L3.3343 9.2697Z" fill="white"/>
<path d="M6.15625 48.3381L12.965 44.5343L19.8019 48.3844C18.9464 48.9236 18.0924 49.4638 17.2402 50.0051L13.0014 47.7229L8.88175 49.891L6.15625 48.3381Z" fill="#FFB140"/>
<path d="M30.9014 17.7272L38.2923 0.818481L45.665 17.7272H42.4037L41.1699 14.79H35.3816L34.1462 17.7272H30.9014ZM40.0503 12.081L38.2923 7.89353L36.5376 12.081H40.0503Z" fill="white"/>
<path d="M48.7114 12.0104C48.6858 12.7866 48.9586 13.543 49.4738 14.124C49.7001 14.3914 49.9825 14.6057 50.3009 14.7517C50.6193 14.8978 50.9659 14.972 51.3162 14.9691C51.6604 14.974 52.003 14.9214 52.33 14.8137C52.6732 14.6861 52.9904 14.4973 53.266 14.2563V17.5276C52.9505 17.6826 52.6173 17.7986 52.2737 17.8732C51.8996 17.956 51.5174 17.997 51.1343 17.9956C49.6668 17.9956 48.4154 17.4168 47.3801 16.2591C46.3448 15.1014 45.8271 13.6852 45.8271 12.0104C45.8271 10.318 46.3448 8.89407 47.3801 7.7386C48.4154 6.58313 49.6668 6.00429 51.1343 6.00209C51.5109 6.00129 51.8864 6.04234 52.2539 6.12447C52.603 6.20306 52.9404 6.32647 53.2578 6.49162V9.73973C52.967 9.50587 52.6417 9.31842 52.2936 9.18404C51.9739 9.0768 51.6385 9.02424 51.3013 9.02858C50.9493 9.02378 50.6006 9.09708 50.2803 9.24322C49.96 9.38935 49.6761 9.60467 49.449 9.87368C48.9429 10.4677 48.6795 11.2307 48.7114 12.0104Z" fill="white"/>
<path d="M57.5361 12.0104C57.5125 12.7871 57.787 13.5434 58.3034 14.124C58.5302 14.3913 58.8128 14.6056 59.1315 14.7516C59.4501 14.8976 59.797 14.9719 60.1475 14.9691C60.4911 14.9738 60.8332 14.9213 61.1596 14.8137C61.5028 14.6861 61.82 14.4973 62.0957 14.2563V17.5276C61.7836 17.6805 61.4544 17.7955 61.1149 17.8699C60.7414 17.9527 60.3598 17.9937 59.9771 17.9923C58.5107 17.9923 57.2593 17.4135 56.2229 16.2558C55.1865 15.0981 54.6672 13.683 54.665 12.0104C54.665 10.318 55.1832 8.89407 56.2196 7.7386C57.256 6.58313 58.5074 6.00429 59.9738 6.00209C60.3499 6.00129 60.7248 6.04234 61.0918 6.12447C61.4409 6.20278 61.7784 6.3262 62.0957 6.49162V9.73973C61.8051 9.50554 61.4798 9.31806 61.1315 9.18404C60.8118 9.07674 60.4763 9.02418 60.1392 9.02858C59.7869 9.02377 59.438 9.09706 59.1174 9.24318C58.7969 9.3893 58.5127 9.60463 58.2853 9.87368C57.775 10.466 57.5074 11.2292 57.5361 12.0104Z" fill="white"/>
<path d="M69.0406 17.9956C68.2986 18.0126 67.5616 17.8703 66.8792 17.5785C66.1969 17.2866 65.5849 16.852 65.0847 16.3037C64.0295 15.178 63.502 13.7541 63.502 12.0319C63.502 10.356 64.0036 8.9321 65.0069 7.76009C66.0103 6.58808 67.2071 6.00208 68.5974 6.00208C70.2071 6.00208 71.4326 6.63659 72.2738 7.90563C73.1151 9.17466 73.4662 10.8467 73.3273 12.9217H66.3184C66.4398 13.5891 66.8173 14.1826 67.3702 14.5755C67.978 14.9789 68.697 15.1814 69.4259 15.1543C69.9986 15.1506 70.5663 15.0488 71.1046 14.8533C71.6378 14.6716 72.1344 14.3967 72.5715 14.0413V16.9934C72.0869 17.336 71.5447 17.5886 70.9706 17.7393C70.3418 17.9113 69.6925 17.9975 69.0406 17.9956ZM68.5577 8.7623C68.0597 8.75547 67.5786 8.94292 67.2164 9.28491C66.8098 9.67429 66.5229 10.1718 66.3895 10.7188H70.5423C70.4944 10.1933 70.27 9.69958 69.9056 9.31799C69.7318 9.13686 69.5222 8.9939 69.2901 8.89823C69.0581 8.80256 68.8086 8.75627 68.5577 8.7623Z" fill="white"/>
<path d="M75.2354 17.7272V0.818481H78.2453V17.7272H75.2354Z" fill="white"/>
<path d="M85.6585 17.9956C84.9162 18.0128 84.1789 17.8707 83.4962 17.5788C82.8135 17.287 82.2013 16.8522 81.7009 16.3037C80.6457 15.178 80.1182 13.7541 80.1182 12.0319C80.1182 10.356 80.6204 8.9321 81.6248 7.76009C82.6292 6.58808 83.8255 6.00208 85.2136 6.00208C86.8233 6.00208 88.0493 6.63659 88.8917 7.90563C89.734 9.17466 90.0846 10.8467 89.9435 12.9217H82.9363C83.0584 13.5888 83.4357 14.1821 83.9881 14.5755C84.5958 14.9789 85.3149 15.1814 86.0438 15.1543C86.617 15.1506 87.1853 15.0488 87.7241 14.8533C88.2566 14.6712 88.7527 14.3963 89.1894 14.0413V16.9934C88.7048 17.336 88.1625 17.5886 87.5885 17.7393C86.9596 17.9113 86.3104 17.9975 85.6585 17.9956ZM85.1755 8.7623C84.6775 8.75547 84.1964 8.94292 83.8343 9.28491C83.4276 9.67429 83.1407 10.1718 83.0074 10.7188H87.1634C87.1162 10.1932 86.8917 9.69921 86.5267 9.31799C86.3526 9.13644 86.1424 8.99325 85.9098 8.89756C85.6771 8.80188 85.427 8.75581 85.1755 8.7623Z" fill="white"/>
<path d="M97.9128 6.06838V9.56125C96.9348 9.41241 96.179 9.57779 95.6454 10.0574C95.1117 10.537 94.8477 11.2983 94.8532 12.3413V17.7262H91.8135V6.26849H94.8532V7.8694C95.1502 7.30313 95.5977 6.82984 96.1465 6.50168C96.6793 6.18538 97.2941 6.03456 97.9128 6.06838Z" fill="white"/>
<path d="M107.872 17.7277H104.958V17.0165C104.693 17.3315 104.351 17.5725 103.965 17.7161C103.279 17.9944 102.527 18.0669 101.8 17.9248C101.074 17.7826 100.404 17.432 99.8738 16.9156C99.1594 16.1957 98.8022 15.2651 98.8022 14.124C98.7883 13.6303 98.8791 13.1392 99.0687 12.6831C99.2582 12.2271 99.5422 11.8163 99.902 11.4779C100.267 11.1309 100.697 10.8595 101.167 10.6793C101.638 10.4991 102.139 10.4136 102.642 10.4277C103.093 10.4294 103.541 10.5083 103.965 10.6609C104.339 10.7745 104.679 10.9765 104.958 11.2497V10.7535C104.967 10.5026 104.917 10.253 104.811 10.0251C104.706 9.79725 104.548 9.59747 104.351 9.44203C103.946 9.11126 103.395 8.94588 102.697 8.94588C102.237 8.94965 101.78 9.02841 101.346 9.17907C100.856 9.34774 100.389 9.57544 99.9549 9.85713V6.87033C100.44 6.57893 100.968 6.36521 101.519 6.23692C102.125 6.08162 102.747 6.00272 103.372 6.00208C104.805 6.00208 105.912 6.40671 106.693 7.21598C107.473 8.02525 107.865 9.16363 107.868 10.6311L107.872 17.7277ZM103.297 15.5248C103.733 15.5387 104.159 15.4013 104.505 15.1361C104.662 15.019 104.789 14.8661 104.875 14.69C104.961 14.514 105.004 14.32 105.001 14.124C105.003 13.9311 104.959 13.7404 104.873 13.5679C104.786 13.3953 104.66 13.2458 104.505 13.1317C104.159 12.8665 103.733 12.7292 103.297 12.7431C102.856 12.7277 102.423 12.8649 102.072 13.1317C101.916 13.2457 101.79 13.3952 101.704 13.5678C101.617 13.7404 101.573 13.931 101.576 14.124C101.572 14.32 101.615 14.5141 101.701 14.6901C101.787 14.8662 101.915 15.0191 102.072 15.1361C102.423 15.4029 102.856 15.5402 103.297 15.5248Z" fill="white"/>
<path d="M113.872 9.02867V13.5221C113.872 13.9984 113.982 14.3656 114.203 14.6236C114.32 14.7544 114.465 14.8574 114.627 14.925C114.789 14.9925 114.964 15.0229 115.139 15.0139C115.394 15.0145 115.647 14.9651 115.883 14.8683C116.129 14.7662 116.353 14.6193 116.545 14.435V17.5062C116.249 17.6636 115.934 17.7831 115.609 17.8617C115.258 17.9506 114.898 17.9956 114.537 17.9957C113.406 17.9957 112.508 17.6319 111.845 16.9042C111.181 16.1765 110.85 15.1754 110.852 13.9008V9.02867H109.27V6.27009H110.852V3.82244L113.872 2.77722V6.27009H116.361V9.02867H113.872Z" fill="white"/>
<path d="M123.43 17.9956C122.688 18.0128 121.95 17.8707 121.268 17.5788C120.585 17.287 119.973 16.8522 119.472 16.3037C118.417 15.178 117.89 13.7541 117.89 12.0319C117.89 10.356 118.391 8.9321 119.395 7.76009C120.398 6.58808 121.595 6.00208 122.985 6.00208C124.595 6.00208 125.82 6.63659 126.662 7.90563C127.503 9.17466 127.854 10.8467 127.715 12.9217H120.708C120.829 13.5891 121.207 14.1826 121.76 14.5755C122.367 14.9789 123.086 15.1814 123.815 15.1543C124.388 15.1506 124.956 15.0488 125.494 14.8533C126.027 14.6716 126.524 14.3966 126.961 14.0413V16.9934C126.476 17.336 125.934 17.5886 125.36 17.7393C124.731 17.9113 124.082 17.9975 123.43 17.9956ZM122.947 8.7623C122.449 8.75547 121.968 8.94292 121.606 9.28491C121.199 9.67429 120.912 10.1718 120.779 10.7188H124.928C124.881 10.1932 124.657 9.69921 124.292 9.31799C124.118 9.13728 123.909 8.99457 123.678 8.89891C123.446 8.80325 123.197 8.75673 122.947 8.7623Z" fill="white"/>
<path d="M30.1494 48.6299L43.5636 24.5039L56.9446 48.6299H51.0273L48.7863 44.4407H38.2746L36.0337 48.6299H30.1494ZM46.7505 40.5675L43.5636 34.6055L40.3766 40.5741L46.7505 40.5675Z" fill="white"/>
<path d="M66.3303 24.1301C66.8698 24.125 67.409 24.1621 67.9428 24.2409C68.3629 24.3021 68.7743 24.4132 69.1682 24.5717V28.6682C68.931 28.539 68.6773 28.4428 68.4141 28.3821C68.1096 28.3139 67.7983 28.2817 67.4863 28.2862C66.7145 28.2862 66.1081 28.4929 65.6671 28.9063C65.2261 29.3198 65.0056 29.886 65.0056 30.6048V32.2867H68.8226V36.2262H65.0006V48.6298H59.6058V36.2262H56.7695V32.2901H59.6058V30.3518C59.6058 28.4466 60.2122 26.9333 61.425 25.812C62.6378 24.6907 64.2729 24.1301 66.3303 24.1301Z" fill="white"/>
<path d="M82.8271 32.0027V36.9873C81.052 36.7756 79.6805 37.0138 78.7124 37.7018C77.7444 38.3898 77.2598 39.4741 77.2587 40.9549V48.6302H71.7598V32.2888H77.2587V34.5727C77.8495 33.7214 78.6607 33.0468 79.6055 32.6212C80.6148 32.1613 81.7193 31.9493 82.8271 32.0027Z" fill="white"/>
<path d="M88.7818 24.6071H88.8513C89.6607 24.5833 90.4481 24.8731 91.0492 25.4158C91.3338 25.6614 91.5612 25.9663 91.7155 26.3092C91.8698 26.652 91.9472 27.0245 91.9422 27.4004C91.9441 27.7728 91.8633 28.141 91.7057 28.4784C91.5482 28.8159 91.3177 29.1142 91.031 29.3519C90.4363 29.8878 89.66 30.1775 88.8595 30.1623H88.7901C87.986 30.1844 87.2035 29.9007 86.6004 29.3684C86.3154 29.1268 86.0874 28.8249 85.933 28.4846C85.7786 28.1443 85.7015 27.774 85.7073 27.4004C85.7024 27.0245 85.7798 26.652 85.9341 26.3092C86.0883 25.9663 86.3158 25.6614 86.6004 25.4158C87.1973 24.877 87.978 24.5876 88.7818 24.6071ZM86.0877 48.6305V32.2891H91.5453V48.6305H86.0877Z" fill="white"/>
<path d="M100.128 40.4783C100.117 41.0541 100.236 41.625 100.476 42.1487C100.715 42.6723 101.07 43.1353 101.513 43.5032C102.439 44.3083 103.632 44.7383 104.858 44.7088C105.478 44.7164 106.096 44.6419 106.696 44.4872C107.301 44.3135 107.874 44.0457 108.396 43.6934V48.3605C107.819 48.5849 107.22 48.7511 106.61 48.8566C105.927 48.9753 105.235 49.0339 104.543 49.0319C101.88 49.0319 99.6092 48.205 97.7305 46.5512C95.8517 44.8974 94.9146 42.8758 94.919 40.4866C94.919 38.0742 95.8561 36.0428 97.7305 34.3923C99.6048 32.7418 101.875 31.9148 104.543 31.9115C105.223 31.9098 105.903 31.9679 106.573 32.0852C107.197 32.1939 107.807 32.3696 108.393 32.6095V37.2402C107.847 36.8983 107.258 36.6313 106.641 36.4463C106.059 36.294 105.46 36.22 104.858 36.2264C103.528 36.2264 102.406 36.6288 101.495 37.4337C101.055 37.8081 100.705 38.2755 100.469 38.8021C100.232 39.3287 100.116 39.9013 100.128 40.4783Z" fill="white"/>
<path d="M127.239 48.6302H121.946V47.6213C121.548 48.0238 120.947 48.3573 120.142 48.6219C119.31 48.8906 118.441 49.0246 117.567 49.0188C115.629 49.0188 114.012 48.5056 112.716 47.4791C111.421 46.4526 110.774 45.1274 110.776 43.5033C110.776 41.9785 111.442 40.7194 112.774 39.726C114.106 38.7326 115.764 38.2364 117.747 38.2375C118.564 38.237 119.377 38.3483 120.163 38.5683C120.957 38.7888 121.553 39.0694 121.951 39.4101V38.7072C121.951 37.9244 121.583 37.3004 120.846 36.8351C120.11 36.3698 119.112 36.1372 117.853 36.1372C117.025 36.1411 116.2 36.2523 115.4 36.468C114.529 36.701 113.684 37.0241 112.88 37.4321V33.1454C113.783 32.7218 114.737 32.4176 115.718 32.2408C116.825 32.021 117.951 31.9102 119.08 31.91C121.671 31.91 123.679 32.4867 125.105 33.6399C126.531 34.7932 127.242 36.4172 127.24 38.5121L127.239 48.6302ZM118.938 45.4879C119.706 45.513 120.465 45.3204 121.128 44.9322C121.723 44.5618 122.021 44.0805 122.021 43.4884C122.021 42.9162 121.723 42.4454 121.128 42.0761C120.465 41.6879 119.706 41.4953 118.938 41.5204C118.05 41.5204 117.309 41.7056 116.714 42.0761C116.118 42.4465 115.821 42.9173 115.821 43.4884C115.821 44.0805 116.118 44.5618 116.714 44.9322C117.309 45.3027 118.05 45.4879 118.938 45.4879Z" fill="white"/>
</g>
<defs>
<clipPath id="clip0_601_480">
<rect width="127.745" height="50" fill="white"/>
</clipPath>
</defs>
</svg>
