<svg width="773" height="303" viewBox="0 0 773 303" fill="none" xmlns="http://www.w3.org/2000/svg">
<g clip-path="url(#clip0_6_93)">
<path d="M71.27 19.51C70.87 90.7034 70.4667 161.89 70.06 233.07L0 271.89L18.61 283.4L79.29 249.26L139.88 282.95L158.44 271.87L88.54 233.54L88.33 18.8101" fill="#E01E1E"/>
<path d="M18.81 228.05L79.39 194.9L141.54 228.6L159.98 216.77L79.08 172.05L0 216.84L18.81 228.05Z" fill="#E01E1E"/>
<path d="M20.16 56.05L80.16 22.89L141.71 56.5601L159.97 44.7401L79.85 0.0500488L1.54004 44.79L20.16 56.05Z" fill="#1D1D1D"/>
<path d="M37.22 292.28L78.39 269.28L119.73 292.56C114.557 295.82 109.393 299.087 104.24 302.36L78.61 288.56L53.7 301.67L37.22 292.28Z" fill="#FFB140"/>
<path d="M186.85 107.19L231.54 4.95007L276.12 107.19H256.4L248.94 89.4301H213.94L206.47 107.19H186.85ZM242.17 73.0501L231.54 47.7301L220.93 73.0501H242.17Z" fill="#1D1D1D"/>
<path d="M294.54 72.6201C294.385 77.313 296.035 81.8868 299.15 85.4001C300.518 87.0167 302.226 88.3125 304.151 89.1956C306.076 90.0787 308.172 90.5275 310.29 90.5101C312.371 90.5394 314.443 90.2217 316.42 89.5701C318.495 88.799 320.413 87.6571 322.08 86.2001V105.98C320.172 106.917 318.157 107.619 316.08 108.07C313.818 108.571 311.507 108.819 309.19 108.81C300.317 108.81 292.75 105.31 286.49 98.3101C280.23 91.3101 277.1 82.7468 277.1 72.6201C277.1 62.3868 280.23 53.7768 286.49 46.7901C292.75 39.8034 300.317 36.3034 309.19 36.2901C311.467 36.2853 313.738 36.5335 315.96 37.0301C318.071 37.5053 320.111 38.2515 322.03 39.2501V58.8901C320.272 57.4761 318.305 56.3427 316.2 55.5301C314.267 54.8817 312.239 54.5639 310.2 54.5901C308.071 54.5611 305.963 55.0043 304.026 55.8879C302.09 56.7715 300.373 58.0735 299 59.7001C295.94 63.2917 294.347 67.9056 294.54 72.6201Z" fill="#1D1D1D"/>
<path d="M347.9 72.6201C347.757 77.3164 349.418 81.8893 352.54 85.4001C353.911 87.0164 355.62 88.312 357.547 89.195C359.474 90.078 361.571 90.5269 363.69 90.5101C365.768 90.5387 367.836 90.221 369.81 89.5701C371.885 88.799 373.803 87.6571 375.47 86.2001V105.98C373.583 106.905 371.592 107.6 369.54 108.05C367.281 108.551 364.974 108.799 362.66 108.79C353.793 108.79 346.227 105.29 339.96 98.2901C333.693 91.2901 330.553 82.7335 330.54 72.6201C330.54 62.3868 333.673 53.7768 339.94 46.7901C346.207 39.8034 353.773 36.3034 362.64 36.2901C364.914 36.2853 367.181 36.5335 369.4 37.0301C371.511 37.5036 373.552 38.2499 375.47 39.2501V58.8901C373.713 57.4741 371.746 56.3405 369.64 55.5301C367.707 54.8813 365.679 54.5635 363.64 54.5901C361.51 54.561 359.4 55.0042 357.462 55.8877C355.524 56.7713 353.805 58.0733 352.43 59.7001C349.345 63.2813 347.726 67.8963 347.9 72.6201Z" fill="#1D1D1D"/>
<path d="M417.46 108.81C412.974 108.913 408.517 108.053 404.391 106.288C400.265 104.523 396.565 101.895 393.54 98.5801C387.16 91.7734 383.97 83.1634 383.97 72.7501C383.97 62.6167 387.003 54.0067 393.07 46.92C399.137 39.8334 406.373 36.29 414.78 36.29C424.513 36.29 431.923 40.1267 437.01 47.8C442.097 55.4734 444.22 65.5834 443.38 78.1301H401C401.734 82.1655 404.017 85.7541 407.36 88.1301C411.035 90.5696 415.382 91.7938 419.79 91.6301C423.252 91.6074 426.685 90.9918 429.94 89.8101C433.164 88.7112 436.167 87.0487 438.81 84.9V102.75C435.88 104.822 432.601 106.349 429.13 107.26C425.328 108.3 421.402 108.822 417.46 108.81ZM414.54 52.98C411.529 52.9387 408.62 54.0722 406.43 56.14C403.971 58.4945 402.236 61.5026 401.43 64.8101H426.54C426.25 61.6329 424.893 58.6474 422.69 56.3401C421.639 55.2448 420.372 54.3804 418.969 53.8019C417.566 53.2235 416.057 52.9435 414.54 52.98Z" fill="#1D1D1D"/>
<path d="M454.92 107.19V4.95007H473.12V107.19H454.92Z" fill="#1D1D1D"/>
<path d="M517.94 108.81C513.452 108.914 508.994 108.055 504.866 106.29C500.738 104.525 497.036 101.896 494.01 98.5801C487.63 91.7734 484.44 83.1634 484.44 72.7501C484.44 62.6167 487.477 54.0067 493.55 46.92C499.623 39.8334 506.857 36.29 515.25 36.29C524.983 36.29 532.397 40.1267 537.49 47.8C542.583 55.4734 544.703 65.5834 543.85 78.1301H501.48C502.218 82.1639 504.5 85.7511 507.84 88.1301C511.515 90.5696 515.862 91.7938 520.27 91.6301C523.736 91.6074 527.172 90.9918 530.43 89.8101C533.65 88.7089 536.65 87.0466 539.29 84.9V102.75C536.36 104.822 533.081 106.349 529.61 107.26C525.808 108.3 521.882 108.822 517.94 108.81ZM515.02 52.98C512.009 52.9387 509.1 54.0722 506.91 56.14C504.451 58.4945 502.716 61.5026 501.91 64.8101H527.04C526.754 61.6318 525.397 58.6451 523.19 56.3401C522.137 55.2423 520.866 54.3765 519.46 53.7979C518.053 53.2193 516.541 52.9407 515.02 52.98Z" fill="#1D1D1D"/>
<path d="M592.04 36.7001V57.8201C586.127 56.9201 581.557 57.9201 578.33 60.8201C575.103 63.7201 573.507 68.3234 573.54 74.6301V107.19H555.16V37.9101H573.54V47.5901C575.336 44.1661 578.042 41.3043 581.36 39.3201C584.582 37.4075 588.299 36.4955 592.04 36.7001Z" fill="#1D1D1D"/>
<path d="M652.26 107.19H634.64V102.89C633.039 104.794 630.972 106.252 628.64 107.12C624.492 108.803 619.943 109.241 615.55 108.382C611.156 107.522 607.108 105.402 603.9 102.28C599.58 97.9267 597.42 92.3 597.42 85.4C597.336 82.4148 597.885 79.4456 599.031 76.6878C600.178 73.9301 601.895 71.4463 604.07 69.4C606.277 67.302 608.878 65.661 611.721 64.5713C614.565 63.4815 617.596 62.9645 620.64 63.05C623.368 63.0603 626.073 63.5372 628.64 64.4601C630.897 65.147 632.955 66.3682 634.64 68.0201V65.0201C634.695 63.5027 634.392 61.9938 633.754 60.6158C633.116 59.2379 632.162 58.0299 630.97 57.0901C628.523 55.0901 625.19 54.0901 620.97 54.0901C618.188 54.1128 615.429 54.5891 612.8 55.5001C609.84 56.5199 607.016 57.8967 604.39 59.6V41.54C607.324 39.778 610.516 38.4858 613.85 37.7101C617.509 36.771 621.272 36.294 625.05 36.29C633.717 36.29 640.41 38.7367 645.13 43.63C649.85 48.5234 652.22 55.4067 652.24 64.2801L652.26 107.19ZM624.6 93.8701C627.232 93.9541 629.811 93.1236 631.9 91.52C632.85 90.8116 633.618 89.887 634.14 88.8227C634.661 87.7584 634.922 86.5851 634.9 85.4C634.913 84.2335 634.647 83.0807 634.125 82.0373C633.604 80.9938 632.841 80.0897 631.9 79.4C629.811 77.7964 627.232 76.966 624.6 77.05C621.933 76.957 619.316 77.787 617.19 79.4C616.249 80.0892 615.485 80.9932 614.963 82.0367C614.442 83.0803 614.176 84.2333 614.19 85.4C614.167 86.5852 614.427 87.7588 614.949 88.8232C615.471 89.8877 616.239 90.8122 617.19 91.52C619.316 93.133 621.933 93.9631 624.6 93.8701Z" fill="#1D1D1D"/>
<path d="M688.54 54.5901V81.7601C688.54 84.6401 689.207 86.86 690.54 88.42C691.247 89.2114 692.123 89.8342 693.102 90.2426C694.082 90.651 695.14 90.8347 696.2 90.78C697.743 90.784 699.272 90.485 700.7 89.9C702.184 89.2828 703.541 88.3943 704.7 87.28V105.85C702.911 106.802 701.01 107.524 699.04 108C696.922 108.537 694.745 108.809 692.56 108.81C685.72 108.81 680.293 106.61 676.28 102.21C672.267 97.81 670.267 91.7567 670.28 84.05V54.5901H660.71V37.91H670.28V23.11L688.54 16.79V37.91H703.59V54.5901H688.54Z" fill="#1D1D1D"/>
<path d="M746.33 108.81C741.842 108.914 737.384 108.055 733.256 106.29C729.128 104.525 725.426 101.896 722.4 98.5801C716.02 91.7734 712.83 83.1634 712.83 72.7501C712.83 62.6167 715.863 54.0067 721.93 46.92C727.997 39.8334 735.233 36.29 743.64 36.29C753.373 36.29 760.783 40.1267 765.87 47.8C770.957 55.4734 773.08 65.5834 772.24 78.1301H729.87C730.604 82.1655 732.887 85.7541 736.23 88.1301C739.905 90.5696 744.252 91.7938 748.66 91.6301C752.123 91.6074 755.556 90.9918 758.81 89.8101C762.034 88.7112 765.037 87.0487 767.68 84.9V102.75C764.75 104.822 761.471 106.349 758 107.26C754.198 108.3 750.272 108.822 746.33 108.81ZM743.41 52.98C740.399 52.9387 737.49 54.0722 735.3 56.14C732.841 58.4945 731.106 61.5026 730.3 64.8101H755.39C755.104 61.6318 753.747 58.6451 751.54 56.3401C750.492 55.2474 749.228 54.3844 747.828 53.806C746.429 53.2276 744.924 52.9463 743.41 52.98Z" fill="#1D1D1D"/>
<path d="M182.3 294.05L263.41 148.17L344.32 294.05H308.54L294.99 268.72H231.43L217.88 294.05H182.3ZM282.68 245.3L263.41 209.25L244.14 245.34L282.68 245.3Z" fill="#1D1D1D"/>
<path d="M401.07 145.91C404.333 145.879 407.592 146.103 410.82 146.58C413.361 146.95 415.848 147.622 418.23 148.58V173.35C416.796 172.569 415.261 171.987 413.67 171.62C411.829 171.208 409.946 171.013 408.06 171.04C403.393 171.04 399.727 172.29 397.06 174.79C394.393 177.29 393.06 180.713 393.06 185.06V195.23H416.14V219.05H393.03V294.05H360.41V219.05H343.26V195.25H360.41V183.53C360.41 172.01 364.077 162.86 371.41 156.08C378.743 149.3 388.63 145.91 401.07 145.91Z" fill="#1D1D1D"/>
<path d="M500.82 193.51V223.65C490.087 222.37 481.793 223.81 475.94 227.97C470.087 232.13 467.157 238.687 467.15 247.64V294.05H433.9V195.24H467.15V209.05C470.722 203.902 475.627 199.824 481.34 197.25C487.443 194.469 494.122 193.187 500.82 193.51Z" fill="#1D1D1D"/>
<path d="M536.83 148.79H537.25C542.145 148.647 546.906 150.398 550.54 153.68C552.261 155.165 553.636 157.009 554.569 159.082C555.502 161.155 555.97 163.407 555.94 165.68C555.951 167.932 555.463 170.158 554.51 172.199C553.557 174.239 552.164 176.043 550.43 177.48C546.834 180.721 542.14 182.472 537.3 182.38H536.88C532.018 182.514 527.287 180.798 523.64 177.58C521.917 176.119 520.538 174.294 519.605 172.236C518.671 170.178 518.205 167.939 518.24 165.68C518.21 163.407 518.678 161.155 519.611 159.082C520.544 157.009 521.919 155.165 523.64 153.68C527.249 150.423 531.97 148.672 536.83 148.79ZM520.54 294.05V195.24H553.54V294.05H520.54Z" fill="#1D1D1D"/>
<path d="M605.44 244.76C605.372 248.241 606.09 251.693 607.539 254.86C608.988 258.026 611.131 260.825 613.81 263.05C619.408 267.918 626.623 270.518 634.04 270.34C637.786 270.386 641.522 269.936 645.15 269C648.808 267.95 652.277 266.33 655.43 264.2V292.42C651.939 293.777 648.321 294.782 644.63 295.42C640.502 296.138 636.32 296.492 632.13 296.48C616.03 296.48 602.3 291.48 590.94 281.48C579.58 271.48 573.913 259.257 573.94 244.81C573.94 230.223 579.607 217.94 590.94 207.96C602.273 197.98 616.003 192.98 632.13 192.96C636.246 192.949 640.355 193.301 644.41 194.01C648.18 194.667 651.868 195.73 655.41 197.18V225.18C652.111 223.113 648.549 221.499 644.82 220.38C641.302 219.459 637.677 219.011 634.04 219.05C625.993 219.05 619.213 221.483 613.7 226.35C611.044 228.614 608.925 231.44 607.496 234.625C606.068 237.809 605.365 241.271 605.44 244.76Z" fill="#1D1D1D"/>
<path d="M769.36 294.05H737.36V287.95C734.953 290.383 731.317 292.4 726.45 294C721.421 295.625 716.165 296.435 710.88 296.4C699.16 296.4 689.383 293.297 681.55 287.09C673.717 280.883 669.807 272.87 669.82 263.05C669.82 253.83 673.847 246.217 681.9 240.21C689.953 234.203 699.977 231.203 711.97 231.21C716.908 231.207 721.824 231.88 726.58 233.21C731.38 234.543 734.983 236.24 737.39 238.3V234.05C737.39 229.317 735.163 225.543 730.71 222.73C726.257 219.917 720.223 218.51 712.61 218.51C707.601 218.534 702.616 219.206 697.78 220.51C692.511 221.919 687.404 223.873 682.54 226.34V200.42C687.998 197.858 693.766 196.019 699.7 194.95C706.395 193.621 713.204 192.951 720.03 192.95C735.697 192.95 747.84 196.437 756.46 203.41C765.08 210.383 769.383 220.203 769.37 232.87L769.36 294.05ZM719.17 275.05C723.812 275.202 728.402 274.037 732.41 271.69C736.01 269.45 737.81 266.54 737.81 262.96C737.81 259.5 736.01 256.653 732.41 254.42C728.402 252.073 723.812 250.908 719.17 251.06C713.803 251.06 709.32 252.18 705.72 254.42C702.12 256.66 700.32 259.507 700.32 262.96C700.32 266.54 702.12 269.45 705.72 271.69C709.32 273.93 713.803 275.05 719.17 275.05Z" fill="#1D1D1D"/>
</g>
<defs>
<clipPath id="clip0_6_93">
<rect width="772.42" height="302.33" fill="white"/>
</clipPath>
</defs>
</svg>
